# xmcd
#
# Track frame offsets:
#	150
#	37725
#	55275
#	82425
#	106350
#	159525
#	212175
#	230175
#	259275
#
# Disc length: 4435 seconds
#
# Revision: 0
# Processed by: cddbd v1.5.2PL0 Copyright (c) Steve Scherf et al.
# Submitted via: audiograbber 1.83.01
#
DISCID=82115109
DTITLE=The Tales of Edgar Allan Poe/a Synphonic Collection - A Synphonic Collec
DTITLE=tion[CD2]
DYEAR=2010
DGENRE=Progressive Rock
TTITLE0=Jukka Kulju - The Purloined Letter
TTITLE1=Anima Morte - The Premature Burial
TTITLE2=Blank Manuskript - The Gold Bug
TTITLE3=Areknames - Hop Frog
TTITLE4=Little Tragedies - The Man in the Crowd
TTITLE5=Armalite - The Murders in the Rue Morgue
TTITLE6=Chansonoir - Ligeria
TTITLE7=Magentic Sound Machine - The Cask of Amontillado
TTITLE8=Daal - The Fall of the House of Usher
EXTD=
EXTT0=
EXTT1=
EXTT2=
EXTT3=
EXTT4=
EXTT5=
EXTT6=
EXTT7=
EXTT8=
PLAYORDER=
